<mxfile host="app.diagrams.net" modified="2022-05-31T07:53:09.127Z" agent="5.0 (Windows NT 10.0; Win64; x64) AppleWebKit/537.36 (KHTML, like Gecko) Chrome/102.0.0.0 Safari/537.36" etag="3FE5gjRA-c6xPPDQazG4" version="18.1.3" type="github">
  <diagram id="nYzWsJp728yYOp4tgbxL" name="Page-1">
    <mxGraphModel dx="920" dy="513" grid="1" gridSize="10" guides="1" tooltips="1" connect="1" arrows="1" fold="1" page="1" pageScale="1" pageWidth="827" pageHeight="1169" math="0" shadow="0">
      <root>
        <mxCell id="0" />
        <mxCell id="1" parent="0" />
        <mxCell id="Rd1JLZo3-fcqN6YmqZa9-77" value="" style="edgeStyle=orthogonalEdgeStyle;rounded=0;orthogonalLoop=1;jettySize=auto;html=1;entryX=0;entryY=0.5;entryDx=0;entryDy=0;" edge="1" parent="1" source="Rd1JLZo3-fcqN6YmqZa9-27" target="Rd1JLZo3-fcqN6YmqZa9-76">
          <mxGeometry relative="1" as="geometry" />
        </mxCell>
        <mxCell id="Rd1JLZo3-fcqN6YmqZa9-91" value="" style="edgeStyle=orthogonalEdgeStyle;rounded=0;orthogonalLoop=1;jettySize=auto;html=1;" edge="1" parent="1" source="Rd1JLZo3-fcqN6YmqZa9-27" target="Rd1JLZo3-fcqN6YmqZa9-82">
          <mxGeometry relative="1" as="geometry" />
        </mxCell>
        <mxCell id="Rd1JLZo3-fcqN6YmqZa9-27" value="" style="shape=table;html=1;whiteSpace=wrap;startSize=20;container=1;collapsible=0;childLayout=tableLayout;" vertex="1" parent="1">
          <mxGeometry x="150" y="90" width="60" height="123" as="geometry" />
        </mxCell>
        <mxCell id="Rd1JLZo3-fcqN6YmqZa9-40" style="shape=tableRow;horizontal=0;startSize=0;swimlaneHead=0;swimlaneBody=0;top=0;left=0;bottom=0;right=0;collapsible=0;dropTarget=0;fillColor=none;points=[[0,0.5],[1,0.5]];portConstraint=eastwest;" vertex="1" parent="Rd1JLZo3-fcqN6YmqZa9-27">
          <mxGeometry y="20" width="60" height="25" as="geometry" />
        </mxCell>
        <mxCell id="Rd1JLZo3-fcqN6YmqZa9-41" style="shape=partialRectangle;html=1;whiteSpace=wrap;connectable=0;fillColor=none;top=0;left=0;bottom=0;right=0;overflow=hidden;" vertex="1" parent="Rd1JLZo3-fcqN6YmqZa9-40">
          <mxGeometry width="60" height="25" as="geometry">
            <mxRectangle width="60" height="25" as="alternateBounds" />
          </mxGeometry>
        </mxCell>
        <mxCell id="Rd1JLZo3-fcqN6YmqZa9-42" style="shape=tableRow;horizontal=0;startSize=0;swimlaneHead=0;swimlaneBody=0;top=0;left=0;bottom=0;right=0;collapsible=0;dropTarget=0;fillColor=none;points=[[0,0.5],[1,0.5]];portConstraint=eastwest;" vertex="1" parent="Rd1JLZo3-fcqN6YmqZa9-27">
          <mxGeometry y="45" width="60" height="27" as="geometry" />
        </mxCell>
        <mxCell id="Rd1JLZo3-fcqN6YmqZa9-43" style="shape=partialRectangle;html=1;whiteSpace=wrap;connectable=0;fillColor=none;top=0;left=0;bottom=0;right=0;overflow=hidden;" vertex="1" parent="Rd1JLZo3-fcqN6YmqZa9-42">
          <mxGeometry width="60" height="27" as="geometry">
            <mxRectangle width="60" height="27" as="alternateBounds" />
          </mxGeometry>
        </mxCell>
        <mxCell id="Rd1JLZo3-fcqN6YmqZa9-44" style="shape=tableRow;horizontal=0;startSize=0;swimlaneHead=0;swimlaneBody=0;top=0;left=0;bottom=0;right=0;collapsible=0;dropTarget=0;fillColor=none;points=[[0,0.5],[1,0.5]];portConstraint=eastwest;" vertex="1" parent="Rd1JLZo3-fcqN6YmqZa9-27">
          <mxGeometry y="72" width="60" height="26" as="geometry" />
        </mxCell>
        <mxCell id="Rd1JLZo3-fcqN6YmqZa9-45" style="shape=partialRectangle;html=1;whiteSpace=wrap;connectable=0;fillColor=none;top=0;left=0;bottom=0;right=0;overflow=hidden;" vertex="1" parent="Rd1JLZo3-fcqN6YmqZa9-44">
          <mxGeometry width="60" height="26" as="geometry">
            <mxRectangle width="60" height="26" as="alternateBounds" />
          </mxGeometry>
        </mxCell>
        <mxCell id="Rd1JLZo3-fcqN6YmqZa9-36" value="" style="shape=tableRow;horizontal=0;startSize=0;swimlaneHead=0;swimlaneBody=0;top=0;left=0;bottom=0;right=0;collapsible=0;dropTarget=0;fillColor=none;points=[[0,0.5],[1,0.5]];portConstraint=eastwest;" vertex="1" parent="Rd1JLZo3-fcqN6YmqZa9-27">
          <mxGeometry y="98" width="60" height="25" as="geometry" />
        </mxCell>
        <mxCell id="Rd1JLZo3-fcqN6YmqZa9-37" value="" style="shape=partialRectangle;html=1;whiteSpace=wrap;connectable=0;fillColor=#0050ef;top=0;left=0;bottom=0;right=0;overflow=hidden;labelBackgroundColor=#5C61FF;fontColor=#ffffff;strokeColor=#001DBC;" vertex="1" parent="Rd1JLZo3-fcqN6YmqZa9-36">
          <mxGeometry width="60" height="25" as="geometry">
            <mxRectangle width="60" height="25" as="alternateBounds" />
          </mxGeometry>
        </mxCell>
        <mxCell id="Rd1JLZo3-fcqN6YmqZa9-47" value="SG 1" style="text;strokeColor=none;fillColor=none;html=1;fontSize=12;fontStyle=1;verticalAlign=middle;align=center;" vertex="1" parent="1">
          <mxGeometry x="155" y="70" width="50" height="20" as="geometry" />
        </mxCell>
        <mxCell id="Rd1JLZo3-fcqN6YmqZa9-101" value="" style="edgeStyle=orthogonalEdgeStyle;rounded=0;orthogonalLoop=1;jettySize=auto;html=1;entryX=0;entryY=0.5;entryDx=0;entryDy=0;" edge="1" parent="1" source="Rd1JLZo3-fcqN6YmqZa9-48" target="Rd1JLZo3-fcqN6YmqZa9-94">
          <mxGeometry relative="1" as="geometry">
            <mxPoint x="430" y="303" as="targetPoint" />
          </mxGeometry>
        </mxCell>
        <mxCell id="Rd1JLZo3-fcqN6YmqZa9-48" value="" style="shape=table;html=1;whiteSpace=wrap;startSize=30;container=1;collapsible=0;childLayout=tableLayout;" vertex="1" parent="1">
          <mxGeometry x="320" y="190" width="60" height="231" as="geometry" />
        </mxCell>
        <mxCell id="Rd1JLZo3-fcqN6YmqZa9-49" style="shape=tableRow;horizontal=0;startSize=0;swimlaneHead=0;swimlaneBody=0;top=0;left=0;bottom=0;right=0;collapsible=0;dropTarget=0;fillColor=none;points=[[0,0.5],[1,0.5]];portConstraint=eastwest;" vertex="1" parent="Rd1JLZo3-fcqN6YmqZa9-48">
          <mxGeometry y="30" width="60" height="29" as="geometry" />
        </mxCell>
        <mxCell id="Rd1JLZo3-fcqN6YmqZa9-50" style="shape=partialRectangle;html=1;whiteSpace=wrap;connectable=0;fillColor=none;top=0;left=0;bottom=0;right=0;overflow=hidden;" vertex="1" parent="Rd1JLZo3-fcqN6YmqZa9-49">
          <mxGeometry width="60" height="29" as="geometry">
            <mxRectangle width="60" height="29" as="alternateBounds" />
          </mxGeometry>
        </mxCell>
        <mxCell id="Rd1JLZo3-fcqN6YmqZa9-85" style="shape=tableRow;horizontal=0;startSize=0;swimlaneHead=0;swimlaneBody=0;top=0;left=0;bottom=0;right=0;collapsible=0;dropTarget=0;fillColor=none;points=[[0,0.5],[1,0.5]];portConstraint=eastwest;" vertex="1" parent="Rd1JLZo3-fcqN6YmqZa9-48">
          <mxGeometry y="59" width="60" height="25" as="geometry" />
        </mxCell>
        <mxCell id="Rd1JLZo3-fcqN6YmqZa9-86" style="shape=partialRectangle;html=1;whiteSpace=wrap;connectable=0;fillColor=none;top=0;left=0;bottom=0;right=0;overflow=hidden;" vertex="1" parent="Rd1JLZo3-fcqN6YmqZa9-85">
          <mxGeometry width="60" height="25" as="geometry">
            <mxRectangle width="60" height="25" as="alternateBounds" />
          </mxGeometry>
        </mxCell>
        <mxCell id="Rd1JLZo3-fcqN6YmqZa9-83" style="shape=tableRow;horizontal=0;startSize=0;swimlaneHead=0;swimlaneBody=0;top=0;left=0;bottom=0;right=0;collapsible=0;dropTarget=0;fillColor=none;points=[[0,0.5],[1,0.5]];portConstraint=eastwest;" vertex="1" parent="Rd1JLZo3-fcqN6YmqZa9-48">
          <mxGeometry y="84" width="60" height="24" as="geometry" />
        </mxCell>
        <mxCell id="Rd1JLZo3-fcqN6YmqZa9-84" style="shape=partialRectangle;html=1;whiteSpace=wrap;connectable=0;fillColor=none;top=0;left=0;bottom=0;right=0;overflow=hidden;" vertex="1" parent="Rd1JLZo3-fcqN6YmqZa9-83">
          <mxGeometry width="60" height="24" as="geometry">
            <mxRectangle width="60" height="24" as="alternateBounds" />
          </mxGeometry>
        </mxCell>
        <mxCell id="Rd1JLZo3-fcqN6YmqZa9-98" value="" style="whiteSpace=wrap;html=1;startSize=20;" vertex="1" parent="Rd1JLZo3-fcqN6YmqZa9-83">
          <mxGeometry x="60" width="NaN" height="24" as="geometry">
            <mxRectangle width="NaN" height="24" as="alternateBounds" />
          </mxGeometry>
        </mxCell>
        <mxCell id="Rd1JLZo3-fcqN6YmqZa9-87" style="shape=tableRow;horizontal=0;startSize=0;swimlaneHead=0;swimlaneBody=0;top=0;left=0;bottom=0;right=0;collapsible=0;dropTarget=0;fillColor=none;points=[[0,0.5],[1,0.5]];portConstraint=eastwest;" vertex="1" parent="Rd1JLZo3-fcqN6YmqZa9-48">
          <mxGeometry y="108" width="60" height="25" as="geometry" />
        </mxCell>
        <mxCell id="Rd1JLZo3-fcqN6YmqZa9-88" style="shape=partialRectangle;html=1;whiteSpace=wrap;connectable=0;fillColor=none;top=0;left=0;bottom=0;right=0;overflow=hidden;" vertex="1" parent="Rd1JLZo3-fcqN6YmqZa9-87">
          <mxGeometry width="60" height="25" as="geometry">
            <mxRectangle width="60" height="25" as="alternateBounds" />
          </mxGeometry>
        </mxCell>
        <mxCell id="Rd1JLZo3-fcqN6YmqZa9-89" value="" style="shape=tableRow;horizontal=0;startSize=0;swimlaneHead=0;swimlaneBody=0;top=0;left=0;bottom=0;right=0;collapsible=0;dropTarget=0;fillColor=none;points=[[0,0.5],[1,0.5]];portConstraint=eastwest;" vertex="1" parent="Rd1JLZo3-fcqN6YmqZa9-48">
          <mxGeometry y="133" width="60" height="24" as="geometry" />
        </mxCell>
        <mxCell id="Rd1JLZo3-fcqN6YmqZa9-90" value="" style="shape=partialRectangle;html=1;whiteSpace=wrap;connectable=0;fillColor=none;top=0;left=0;bottom=0;right=0;overflow=hidden;" vertex="1" parent="Rd1JLZo3-fcqN6YmqZa9-89">
          <mxGeometry width="60" height="24" as="geometry">
            <mxRectangle width="60" height="24" as="alternateBounds" />
          </mxGeometry>
        </mxCell>
        <mxCell id="Rd1JLZo3-fcqN6YmqZa9-51" style="shape=tableRow;horizontal=0;startSize=0;swimlaneHead=0;swimlaneBody=0;top=0;left=0;bottom=0;right=0;collapsible=0;dropTarget=0;fillColor=none;points=[[0,0.5],[1,0.5]];portConstraint=eastwest;" vertex="1" parent="Rd1JLZo3-fcqN6YmqZa9-48">
          <mxGeometry y="157" width="60" height="25" as="geometry" />
        </mxCell>
        <mxCell id="Rd1JLZo3-fcqN6YmqZa9-52" style="shape=partialRectangle;html=1;whiteSpace=wrap;connectable=0;fillColor=none;top=0;left=0;bottom=0;right=0;overflow=hidden;" vertex="1" parent="Rd1JLZo3-fcqN6YmqZa9-51">
          <mxGeometry width="60" height="25" as="geometry">
            <mxRectangle width="60" height="25" as="alternateBounds" />
          </mxGeometry>
        </mxCell>
        <mxCell id="Rd1JLZo3-fcqN6YmqZa9-57" value="" style="shape=table;html=1;whiteSpace=wrap;startSize=20;container=1;collapsible=0;childLayout=tableLayout;" vertex="1" parent="Rd1JLZo3-fcqN6YmqZa9-51">
          <mxGeometry x="60" width="NaN" height="25" as="geometry">
            <mxRectangle width="NaN" height="25" as="alternateBounds" />
          </mxGeometry>
        </mxCell>
        <mxCell id="Rd1JLZo3-fcqN6YmqZa9-58" style="shape=tableRow;horizontal=0;startSize=0;swimlaneHead=0;swimlaneBody=0;top=0;left=0;bottom=0;right=0;collapsible=0;dropTarget=0;fillColor=none;points=[[0,0.5],[1,0.5]];portConstraint=eastwest;" vertex="1" visible="0" parent="Rd1JLZo3-fcqN6YmqZa9-57">
          <mxGeometry y="20" width="60" height="25" as="geometry" />
        </mxCell>
        <mxCell id="Rd1JLZo3-fcqN6YmqZa9-59" style="shape=partialRectangle;html=1;whiteSpace=wrap;connectable=0;fillColor=none;top=0;left=0;bottom=0;right=0;overflow=hidden;" vertex="1" parent="Rd1JLZo3-fcqN6YmqZa9-58">
          <mxGeometry width="60" height="25" as="geometry">
            <mxRectangle width="60" height="25" as="alternateBounds" />
          </mxGeometry>
        </mxCell>
        <mxCell id="Rd1JLZo3-fcqN6YmqZa9-60" style="shape=tableRow;horizontal=0;startSize=0;swimlaneHead=0;swimlaneBody=0;top=0;left=0;bottom=0;right=0;collapsible=0;dropTarget=0;fillColor=none;points=[[0,0.5],[1,0.5]];portConstraint=eastwest;" vertex="1" visible="0" parent="Rd1JLZo3-fcqN6YmqZa9-57">
          <mxGeometry y="45" width="60" height="27" as="geometry" />
        </mxCell>
        <mxCell id="Rd1JLZo3-fcqN6YmqZa9-61" style="shape=partialRectangle;html=1;whiteSpace=wrap;connectable=0;fillColor=none;top=0;left=0;bottom=0;right=0;overflow=hidden;" vertex="1" parent="Rd1JLZo3-fcqN6YmqZa9-60">
          <mxGeometry width="60" height="27" as="geometry">
            <mxRectangle width="60" height="27" as="alternateBounds" />
          </mxGeometry>
        </mxCell>
        <mxCell id="Rd1JLZo3-fcqN6YmqZa9-62" style="shape=tableRow;horizontal=0;startSize=0;swimlaneHead=0;swimlaneBody=0;top=0;left=0;bottom=0;right=0;collapsible=0;dropTarget=0;fillColor=none;points=[[0,0.5],[1,0.5]];portConstraint=eastwest;" vertex="1" visible="0" parent="Rd1JLZo3-fcqN6YmqZa9-57">
          <mxGeometry y="72" width="60" height="26" as="geometry" />
        </mxCell>
        <mxCell id="Rd1JLZo3-fcqN6YmqZa9-63" style="shape=partialRectangle;html=1;whiteSpace=wrap;connectable=0;fillColor=none;top=0;left=0;bottom=0;right=0;overflow=hidden;" vertex="1" parent="Rd1JLZo3-fcqN6YmqZa9-62">
          <mxGeometry width="60" height="26" as="geometry">
            <mxRectangle width="60" height="26" as="alternateBounds" />
          </mxGeometry>
        </mxCell>
        <mxCell id="Rd1JLZo3-fcqN6YmqZa9-64" value="" style="shape=tableRow;horizontal=0;startSize=0;swimlaneHead=0;swimlaneBody=0;top=0;left=0;bottom=0;right=0;collapsible=0;dropTarget=0;fillColor=none;points=[[0,0.5],[1,0.5]];portConstraint=eastwest;" vertex="1" visible="0" parent="Rd1JLZo3-fcqN6YmqZa9-57">
          <mxGeometry y="98" width="60" height="25" as="geometry" />
        </mxCell>
        <mxCell id="Rd1JLZo3-fcqN6YmqZa9-65" value="" style="shape=partialRectangle;html=1;whiteSpace=wrap;connectable=0;fillColor=none;top=0;left=0;bottom=0;right=0;overflow=hidden;" vertex="1" parent="Rd1JLZo3-fcqN6YmqZa9-64">
          <mxGeometry width="60" height="25" as="geometry">
            <mxRectangle width="60" height="25" as="alternateBounds" />
          </mxGeometry>
        </mxCell>
        <mxCell id="Rd1JLZo3-fcqN6YmqZa9-66" value="" style="whiteSpace=wrap;html=1;startSize=20;" vertex="1" parent="Rd1JLZo3-fcqN6YmqZa9-51">
          <mxGeometry width="NaN" height="25" as="geometry">
            <mxRectangle width="NaN" height="25" as="alternateBounds" />
          </mxGeometry>
        </mxCell>
        <mxCell id="Rd1JLZo3-fcqN6YmqZa9-67" value="" style="shape=table;html=1;whiteSpace=wrap;startSize=20;container=1;collapsible=0;childLayout=tableLayout;" vertex="1" parent="Rd1JLZo3-fcqN6YmqZa9-51">
          <mxGeometry width="NaN" height="25" as="geometry">
            <mxRectangle width="NaN" height="25" as="alternateBounds" />
          </mxGeometry>
        </mxCell>
        <mxCell id="Rd1JLZo3-fcqN6YmqZa9-68" style="shape=tableRow;horizontal=0;startSize=0;swimlaneHead=0;swimlaneBody=0;top=0;left=0;bottom=0;right=0;collapsible=0;dropTarget=0;fillColor=none;points=[[0,0.5],[1,0.5]];portConstraint=eastwest;" vertex="1" visible="0" parent="Rd1JLZo3-fcqN6YmqZa9-67">
          <mxGeometry y="20" width="60" height="25" as="geometry" />
        </mxCell>
        <mxCell id="Rd1JLZo3-fcqN6YmqZa9-69" style="shape=partialRectangle;html=1;whiteSpace=wrap;connectable=0;fillColor=none;top=0;left=0;bottom=0;right=0;overflow=hidden;" vertex="1" parent="Rd1JLZo3-fcqN6YmqZa9-68">
          <mxGeometry width="60" height="25" as="geometry">
            <mxRectangle width="60" height="25" as="alternateBounds" />
          </mxGeometry>
        </mxCell>
        <mxCell id="Rd1JLZo3-fcqN6YmqZa9-70" style="shape=tableRow;horizontal=0;startSize=0;swimlaneHead=0;swimlaneBody=0;top=0;left=0;bottom=0;right=0;collapsible=0;dropTarget=0;fillColor=none;points=[[0,0.5],[1,0.5]];portConstraint=eastwest;" vertex="1" visible="0" parent="Rd1JLZo3-fcqN6YmqZa9-67">
          <mxGeometry y="45" width="60" height="27" as="geometry" />
        </mxCell>
        <mxCell id="Rd1JLZo3-fcqN6YmqZa9-71" style="shape=partialRectangle;html=1;whiteSpace=wrap;connectable=0;fillColor=none;top=0;left=0;bottom=0;right=0;overflow=hidden;" vertex="1" parent="Rd1JLZo3-fcqN6YmqZa9-70">
          <mxGeometry width="60" height="27" as="geometry">
            <mxRectangle width="60" height="27" as="alternateBounds" />
          </mxGeometry>
        </mxCell>
        <mxCell id="Rd1JLZo3-fcqN6YmqZa9-72" style="shape=tableRow;horizontal=0;startSize=0;swimlaneHead=0;swimlaneBody=0;top=0;left=0;bottom=0;right=0;collapsible=0;dropTarget=0;fillColor=none;points=[[0,0.5],[1,0.5]];portConstraint=eastwest;" vertex="1" visible="0" parent="Rd1JLZo3-fcqN6YmqZa9-67">
          <mxGeometry y="72" width="60" height="26" as="geometry" />
        </mxCell>
        <mxCell id="Rd1JLZo3-fcqN6YmqZa9-73" style="shape=partialRectangle;html=1;whiteSpace=wrap;connectable=0;fillColor=none;top=0;left=0;bottom=0;right=0;overflow=hidden;" vertex="1" parent="Rd1JLZo3-fcqN6YmqZa9-72">
          <mxGeometry width="60" height="26" as="geometry">
            <mxRectangle width="60" height="26" as="alternateBounds" />
          </mxGeometry>
        </mxCell>
        <mxCell id="Rd1JLZo3-fcqN6YmqZa9-74" value="" style="shape=tableRow;horizontal=0;startSize=0;swimlaneHead=0;swimlaneBody=0;top=0;left=0;bottom=0;right=0;collapsible=0;dropTarget=0;fillColor=none;points=[[0,0.5],[1,0.5]];portConstraint=eastwest;" vertex="1" visible="0" parent="Rd1JLZo3-fcqN6YmqZa9-67">
          <mxGeometry y="98" width="60" height="25" as="geometry" />
        </mxCell>
        <mxCell id="Rd1JLZo3-fcqN6YmqZa9-75" value="" style="shape=partialRectangle;html=1;whiteSpace=wrap;connectable=0;fillColor=none;top=0;left=0;bottom=0;right=0;overflow=hidden;" vertex="1" parent="Rd1JLZo3-fcqN6YmqZa9-74">
          <mxGeometry width="60" height="25" as="geometry">
            <mxRectangle width="60" height="25" as="alternateBounds" />
          </mxGeometry>
        </mxCell>
        <mxCell id="Rd1JLZo3-fcqN6YmqZa9-53" style="shape=tableRow;horizontal=0;startSize=0;swimlaneHead=0;swimlaneBody=0;top=0;left=0;bottom=0;right=0;collapsible=0;dropTarget=0;fillColor=none;points=[[0,0.5],[1,0.5]];portConstraint=eastwest;" vertex="1" parent="Rd1JLZo3-fcqN6YmqZa9-48">
          <mxGeometry y="182" width="60" height="25" as="geometry" />
        </mxCell>
        <mxCell id="Rd1JLZo3-fcqN6YmqZa9-54" style="shape=partialRectangle;html=1;whiteSpace=wrap;connectable=0;fillColor=none;top=0;left=0;bottom=0;right=0;overflow=hidden;" vertex="1" parent="Rd1JLZo3-fcqN6YmqZa9-53">
          <mxGeometry width="60" height="25" as="geometry">
            <mxRectangle width="60" height="25" as="alternateBounds" />
          </mxGeometry>
        </mxCell>
        <mxCell id="Rd1JLZo3-fcqN6YmqZa9-55" value="" style="shape=tableRow;horizontal=0;startSize=0;swimlaneHead=0;swimlaneBody=0;top=0;left=0;bottom=0;right=0;collapsible=0;dropTarget=0;fillColor=none;points=[[0,0.5],[1,0.5]];portConstraint=eastwest;" vertex="1" parent="Rd1JLZo3-fcqN6YmqZa9-48">
          <mxGeometry y="207" width="60" height="24" as="geometry" />
        </mxCell>
        <mxCell id="Rd1JLZo3-fcqN6YmqZa9-56" value="" style="shape=partialRectangle;html=1;whiteSpace=wrap;connectable=0;fillColor=#60a917;top=0;left=0;bottom=0;right=0;overflow=hidden;fontColor=#ffffff;strokeColor=#2D7600;" vertex="1" parent="Rd1JLZo3-fcqN6YmqZa9-55">
          <mxGeometry width="60" height="24" as="geometry">
            <mxRectangle width="60" height="24" as="alternateBounds" />
          </mxGeometry>
        </mxCell>
        <mxCell id="Rd1JLZo3-fcqN6YmqZa9-76" value="" style="whiteSpace=wrap;html=1;startSize=20;fillColor=#008a00;fontColor=#ffffff;strokeColor=#005700;" vertex="1" parent="1">
          <mxGeometry x="340" y="40" width="90" height="30" as="geometry" />
        </mxCell>
        <mxCell id="Rd1JLZo3-fcqN6YmqZa9-78" value="Struct Page" style="text;html=1;align=center;verticalAlign=middle;resizable=0;points=[];autosize=1;strokeColor=none;fillColor=none;" vertex="1" parent="1">
          <mxGeometry x="334" y="20" width="80" height="20" as="geometry" />
        </mxCell>
        <mxCell id="Rd1JLZo3-fcqN6YmqZa9-79" value="" style="shape=curlyBracket;whiteSpace=wrap;html=1;rounded=1;flipH=1;" vertex="1" parent="1">
          <mxGeometry x="450" y="40" width="20" height="80" as="geometry" />
        </mxCell>
        <mxCell id="Rd1JLZo3-fcqN6YmqZa9-80" value="Length" style="text;html=1;align=center;verticalAlign=middle;resizable=0;points=[];autosize=1;strokeColor=none;fillColor=none;" vertex="1" parent="1">
          <mxGeometry x="475" y="70" width="50" height="20" as="geometry" />
        </mxCell>
        <mxCell id="Rd1JLZo3-fcqN6YmqZa9-81" value="SG2" style="text;html=1;align=center;verticalAlign=middle;resizable=0;points=[];autosize=1;fontStyle=1" vertex="1" parent="1">
          <mxGeometry x="330" y="170" width="40" height="20" as="geometry" />
        </mxCell>
        <mxCell id="Rd1JLZo3-fcqN6YmqZa9-92" value="" style="endArrow=classic;html=1;rounded=0;exitX=1;exitY=0.5;exitDx=0;exitDy=0;" edge="1" parent="1" source="Rd1JLZo3-fcqN6YmqZa9-36">
          <mxGeometry width="50" height="50" relative="1" as="geometry">
            <mxPoint x="380" y="250" as="sourcePoint" />
            <mxPoint x="320" y="200" as="targetPoint" />
          </mxGeometry>
        </mxCell>
        <mxCell id="Rd1JLZo3-fcqN6YmqZa9-93" value="sg chain" style="text;html=1;align=center;verticalAlign=middle;resizable=0;points=[];autosize=1;strokeColor=none;fillColor=none;" vertex="1" parent="1">
          <mxGeometry x="220" y="213" width="60" height="20" as="geometry" />
        </mxCell>
        <mxCell id="Rd1JLZo3-fcqN6YmqZa9-99" value="" style="edgeStyle=orthogonalEdgeStyle;rounded=0;orthogonalLoop=1;jettySize=auto;html=1;" edge="1" parent="1" source="Rd1JLZo3-fcqN6YmqZa9-94" target="Rd1JLZo3-fcqN6YmqZa9-98">
          <mxGeometry relative="1" as="geometry" />
        </mxCell>
        <mxCell id="Rd1JLZo3-fcqN6YmqZa9-94" value="" style="whiteSpace=wrap;html=1;startSize=20;fillColor=#008a00;fontColor=#ffffff;strokeColor=#005700;" vertex="1" parent="1">
          <mxGeometry x="456" y="220" width="90" height="30" as="geometry" />
        </mxCell>
        <mxCell id="Rd1JLZo3-fcqN6YmqZa9-95" value="Struct Page" style="text;html=1;align=center;verticalAlign=middle;resizable=0;points=[];autosize=1;strokeColor=none;fillColor=none;" vertex="1" parent="1">
          <mxGeometry x="450" y="200" width="80" height="20" as="geometry" />
        </mxCell>
        <mxCell id="Rd1JLZo3-fcqN6YmqZa9-96" value="" style="shape=curlyBracket;whiteSpace=wrap;html=1;rounded=1;flipH=1;" vertex="1" parent="1">
          <mxGeometry x="566" y="220" width="20" height="80" as="geometry" />
        </mxCell>
        <mxCell id="Rd1JLZo3-fcqN6YmqZa9-97" value="Length" style="text;html=1;align=center;verticalAlign=middle;resizable=0;points=[];autosize=1;strokeColor=none;fillColor=none;" vertex="1" parent="1">
          <mxGeometry x="591" y="250" width="50" height="20" as="geometry" />
        </mxCell>
        <mxCell id="Rd1JLZo3-fcqN6YmqZa9-102" value="sg end" style="text;html=1;align=center;verticalAlign=middle;resizable=0;points=[];autosize=1;strokeColor=none;fillColor=none;fontSize=12;" vertex="1" parent="1">
          <mxGeometry x="389" y="401" width="50" height="20" as="geometry" />
        </mxCell>
        <mxCell id="Rd1JLZo3-fcqN6YmqZa9-103" value="&amp;nbsp; struct scatterlist {&lt;br&gt;&amp;nbsp; &amp;nbsp; &amp;nbsp; &amp;nbsp;unsigned long&amp;nbsp; &amp;nbsp;page_link;&lt;br&gt;&amp;nbsp; &amp;nbsp; &amp;nbsp; &amp;nbsp;unsigned int&amp;nbsp; &amp;nbsp; offset;&lt;br&gt;&amp;nbsp; &amp;nbsp; &amp;nbsp; &amp;nbsp;unsigned int&amp;nbsp; &amp;nbsp; length;&amp;nbsp;&amp;nbsp;&lt;br&gt;&amp;nbsp; &amp;nbsp; &amp;nbsp; &amp;nbsp;dma_addr_t&amp;nbsp; dma_address;&lt;br&gt;&amp;nbsp; };" style="text;whiteSpace=wrap;html=1;fontSize=12;strokeColor=default;" vertex="1" parent="1">
          <mxGeometry x="20" y="361" width="190" height="100" as="geometry" />
        </mxCell>
        <mxCell id="Rd1JLZo3-fcqN6YmqZa9-104" value="struct sg_table {&lt;br&gt;&amp;nbsp; &amp;nbsp; &amp;nbsp; struct scatterlist *sgl;&lt;br&gt;&amp;nbsp; &amp;nbsp; &amp;nbsp; unsigned int nents;&lt;br&gt;&amp;nbsp; &amp;nbsp; &amp;nbsp; unsigned int orig_nents;&lt;br&gt;};" style="text;whiteSpace=wrap;html=1;fontSize=12;strokeColor=default;" vertex="1" parent="1">
          <mxGeometry x="20" y="265.5" width="190" height="80" as="geometry" />
        </mxCell>
      </root>
    </mxGraphModel>
  </diagram>
</mxfile>
